# Blender 3.3.1
# www.blender.org
o Cube.002
v -0.144631 -0.022718 0.092327
v -0.144631 0.022718 0.092327
v -0.144631 -0.022718 -0.092327
v -0.144631 0.022718 -0.092327
v 0.144631 -0.022718 0.092327
v 0.144631 0.022718 0.092327
v 0.144631 -0.022718 -0.092327
v 0.144631 0.022718 -0.092327
vn -1.0000 -0.0000 -0.0000
vn -0.0000 -0.0000 -1.0000
vn 1.0000 -0.0000 -0.0000
vn -0.0000 -0.0000 1.0000
vn -0.0000 1.0000 -0.0000
vt 0.998456 0.182195
vt 0.007561 0.003087
vt 0.898062 0.182195
vt 0.007561 0.176241
vt 0.000595 0.174809
vt 0.879128 0.009434
vt 0.998456 0.995734
vt 0.898062 0.995734
vt 0.879128 0.165939
vt 0.000595 0.993175
vt 0.880800 0.003087
vt 0.999080 0.181337
vt 0.896514 0.181337
vt 0.880800 0.176240
vt 0.893317 0.174809
vt 0.999080 0.998549
vt 0.009234 0.009435
vt 0.893316 0.993175
vt 0.009234 0.165939
vt 0.896514 0.998549
s 0
f 2/3/1 3/7/1 1/1/1
f 4/9/2 7/17/2 3/6/2
f 8/20/3 5/12/3 7/16/3
f 6/14/4 1/2/4 5/11/4
f 4/10/5 6/15/5 8/18/5
f 2/3/1 4/8/1 3/7/1
f 4/9/2 8/19/2 7/17/2
f 8/20/3 6/13/3 5/12/3
f 6/14/4 2/4/4 1/2/4
f 4/10/5 2/5/5 6/15/5
